<svg height="512" viewBox="0 0 64 64" width="512" xmlns="http://www.w3.org/2000/svg" ><g  fill='gray' id="workhome-virus-covid19-coronavirus-home"><path d="m21 44h22v10h-22z"/><path d="m45 44h1v12h-1z"/><path d="m47 36a3.009 3.009 0 0 0 -3-3h-4a3.009 3.009 0 0 0 -3 3v2h10z"/><circle cx="42" cy="27" r="2"/><path d="m60 22.54-28-18.34-28 18.34v3.61l27.45-17.99a1.025 1.025 0 0 1 1.1 0l27.45 17.99z"/><path d="m18 44h1v12h-1z"/><path d="m9 25.26v34.74h46v-34.74l-23-15.06zm24 .74v10a1 1 0 0 1 -1 1h-5v1h8v-2a5 5 0 0 1 5-5h2a4 4 0 1 1 4-4 4 4 0 0 1 -4 4h2a5 5 0 0 1 5 5v2h1a1 1 0 0 1 1 1v4a1 1 0 0 1 -1 1h-2v13a1 1 0 0 1 -1 1h-3a1 1 0 0 1 -1-1v-1h-22v1a1 1 0 0 1 -1 1h-3a1 1 0 0 1 -1-1v-13h-2a1 1 0 0 1 -1-1v-4a1 1 0 0 1 1-1h7v-1h-5a1 1 0 0 1 -1-1v-10a1 1 0 0 1 1-1h16a1 1 0 0 1 1 1z"/><path d="m17 35h4v-1a3 3 0 0 1 6 0v1h4v-8h-14z"/><path d="m15 40h34v2h-34z"/><path d="m24 33a1 1 0 0 0 -1 1v4h2v-4a1 1 0 0 0 -1-1z"/></g></svg>